# xmcd
#
# Track frame offsets:
#	150
#	17326
#	35548
#	55752
#	74551
#	95309
#	117260
#	133997
#	156403
#	176338
#
# Disc length: 2546 seconds
#
# Revision: 1
# Processed by: cddbd v1.5.2PL0 Copyright (c) Steve Scherf et al.
# Submitted via: EZCDAudioConverter 8.0.2.1
#
DISCID=8309f00a
DTITLE=Various Artist - Top Hist 5. Trái Tim Hoang Đường
DYEAR=2001
DGENRE=
TTITLE0=Châu Ngọc - Trái Tim Hoang Đường
TTITLE1=Lưu Bích - Nụ hôn đầu tiên
TTITLE2=Lynda Trang Đài, Tommy Ngô - Hạ hồng
TTITLE3=Lây Minh - Vu vơ tình đầu
TTITLE4=Thiên Kim - Có đôi khi
TTITLE5=Bảo Hân - Dưới ánh nắng mặt trời
TTITLE6=Lynda Trang Đài - Quên
TTITLE7=Thế Sơn - Chân Tình
TTITLE8=Lây Minh and Mai Linh - Một thoáng tình ta
TTITLE9=Tommy Ngô - Be Happy
EXTD=
EXTT0=
EXTT1=
EXTT2=
EXTT3=
EXTT4=
EXTT5=
EXTT6=
EXTT7=
EXTT8=
EXTT9=
PLAYORDER=
